<svg xmlns="http://www.w3.org/2000/svg" width="200" height="200">
  <!-- Based on "fa-solid fa-rotate-left" by Font Awesome Free 6.7.2 CC BY 4.0-->
  <path
    d="M3.7073 21.3322H2.7701c-1.4663 0-2.646-1.1797-2.646-2.646l0-14.112c0-1.0694.6394-2.0396 1.6317-2.4476s2.1278-.1874 2.8886.5733L9.2308 7.2863c9.6579-9.5366 25.2142-9.5036 34.817.1102 9.6469 9.6469 9.6469 25.2803 0 34.9272s-25.2803 9.6469-34.9272 0c-1.3781-1.3781-1.3781-3.6162 0-4.9943s3.6162-1.3781 4.9943 0c6.8906 6.8906 18.0589 6.8906 24.9496 0s6.8906-18.0589 0-24.9496c-6.8576-6.8575-17.9377-6.8906-24.8393-.1103l4.5313 4.5423c.7607.7607.9812 1.8963.5733 2.8885s-1.3781 1.6317-2.4475 1.6317l-13.1749 0z" />
</svg>