<svg xmlns="http://www.w3.org/2000/svg" width="200" height="200">
  <!-- Based on "fa-solid fa-flag-checkered" by Font Awesome Free 6.7.2 CC BY 4.0-->
  <path
    d="M3.1115 0A3.109 3.109 90 016.223 3.1115v1.556l6.71-1.6725c3.705-.924 7.614-.496 11.037 1.2155a15.962 15.962 90 0014.304 0l.9335-.467c2.003-1.0115 4.3565.4475 4.3565 2.684v27.198c0 1.2935-.807 2.46-2.0225 2.917l-3.374 1.264c-4.4925 1.6825-9.4905 1.4195-13.779-.7195-3.6855-1.8475-7.9055-2.3045-11.912-1.303L6.224 37.34v9.335a3.109 3.109 90 01-3.1115 3.1115A3.109 3.109 90 010 46.6755v-7.779-6.418V6.2235 3.1115A3.109 3.109 90 013.1115 0zM6.223 18.1935l6.2235-1.3515v6.3695L6.223 24.563v6.3595l4.7455-1.1865c.496-.1265.982-.2335 1.478-.321V23.2015l3.7825-.817c.807-.175 1.624-.243 2.4405-.204V15.957c1.3225.039 2.645.253 3.9285.6225l2.295.671v6.486l-4.055-1.196c-.71-.204-1.439-.3305-2.1685-.3695v6.943c2.12.185 4.2105.6515 6.2235 1.4005v-6.788l2.2075.6515c1.3125.389 2.6545.6225 4.016.7195V18.855c-.7585-.078-1.517-.2235-2.256-.4375l-3.9675-1.167v-6.029c-1.264-.3695-2.509-.8555-3.7145-1.4585-.7975-.3985-1.6435-.6805-2.509-.8555v7.04c-1.264-.039-2.5285.078-3.763.35l-2.46.5445V9.5295l-6.2235 1.556v7.1085zm24.8935 14.45c1.6335.146 3.2965-.068 4.862-.661l1.3615-.5055V24.5045l-.768.175c-1.789.418-3.627.5545-5.455.4375v7.5265zM37.34 18.116V11.2315c-2.0325.593-4.123.885-6.2235.885v6.748c1.3515.136 2.7225.0485 4.055-.253l2.1685-.5055z" />
</svg>