<svg xmlns="http://www.w3.org/2000/svg" width="200" height="200">
  <!-- Based on "fa-regular fa-circle-play" by Font Awesome Free 6.7.2 CC BY 4.0-->
  <path
    d="m18.2685 14.2908c-.7373.4075-1.1933 1.1836-1.1933 2.0277v17.0752c0 .8441.456 1.6202 1.1933 2.0277s1.6396.3881 2.3575-.0485l13.9706-8.5376c.6888-.4269 1.1157-1.1739 1.1157-1.9889s-.4269-1.562-1.1157-1.9889l-13.9706-8.5376c-.7276-.4463-1.6202-.456-2.3575-.0485zM0 24.8367a24.8367 24.8367 90 1049.6733 0A24.8367 24.8367 90 100 24.8367zm45.0165 0a20.1798 20.1798 90 11-40.3596 0 20.1798 20.1798 90 1140.3596 0z" />
  <path
    d="m18.2685 164.2908c-.7373.4075-1.1933 1.1836-1.1933 2.0277v17.0752c0 .8441.456 1.6202 1.1933 2.0277s1.6396.3881 2.3575-.0485l13.9706-8.5376c.6888-.4269 1.1157-1.1739 1.1157-1.9889s-.4269-1.562-1.1157-1.9889l-13.9706-8.5376c-.7276-.4463-1.6202-.456-2.3575-.0485zM0 174.8367a24.8367 24.8367 90 1049.6733 0A24.8367 24.8367 90 100 174.8367zm45.0165 0a20.1798 20.1798 90 11-40.3596 0 20.1798 20.1798 90 1140.3596 0z" />
</svg>